# xmcd
#
# Track frame offsets:
#	150
#	17061
#	26159
#	41671
#	51751
#	69343
#	83167
#	96321
#	105375
#	118345
#	133522
#	150969
#	161696
#	179254
#	193451
#	210846
#	223960
#	237655
#	255844
#	269605
#
# Disc length: 3743 seconds
#
# Revision: 0
# Processed by: cddbd v1.5.2PL0 Copyright (c) Steve Scherf et al.
# Submitted via: audiograbber 1.83.01
#
DISCID=1d0e9d14
DTITLE=Captain Cook  - 40 Romantische Traumhits CD2
DYEAR=2005
DGENRE=Instrumental
TTITLE0=Marianne Cathomen - Es war romantico
TTITLE1=Billy Vaughn - Blue Hawai
TTITLE2=Vikinger - Träum mit mir durch die Sommernacht
TTITLE3=Captain Cook - Plaese Relase me
TTITLE4=Die Paldauer - Eine rote Rose
TTITLE5=Carlo Brunner and Phiipp Mettler - La Barca Bianca
TTITLE6=Marcel Schweizer - Lass uns wieder einmal Tanzen geh´n
TTITLE7=Billy Vaughn - Aloha Oe
TTITLE8=Vikinger - Wenn Du fühlst was ich fühle
TTITLE9=Saxi Gamblers - Sax mit Blumen
TTITLE10=Zillertaler Schürzenjäger - Ich brauche Dich
TTITLE11=The Silverymoons - My Happiness
TTITLE12=Louis Menar - Ich kenne die Prärie
TTITLE13=Carlo Brunner and Phiipp Mettler - Che Bella Cosa
TTITLE14=Calimeros - Wenn man sich von Herzen Liebt
TTITLE15=Captain Cook - Wenn die Sonne erwacht in den Bergen
TTITLE16=Romanticas - Weisse Rosen am Lago Maggiore
TTITLE17=Saxi Dreamer - Ich kriege einfach immer weiche Knie
TTITLE18=Werner Schmid - Die Windsbraut
TTITLE19=Saxi Gamblers - Sail along Silvery Moon
EXTD=
EXTT0=
EXTT1=
EXTT2=
EXTT3=
EXTT4=
EXTT5=
EXTT6=
EXTT7=
EXTT8=
EXTT9=
EXTT10=
EXTT11=
EXTT12=
EXTT13=
EXTT14=
EXTT15=
EXTT16=
EXTT17=
EXTT18=
EXTT19=
PLAYORDER=
